<svg width="137" height="60" viewBox="0 0 137 60" fill="none" xmlns="http://www.w3.org/2000/svg">
<g clip-path="url(#clip0_1_253)">
<path d="M45.3017 14.1798C44.3021 15.0946 43.7943 16.4353 43.7943 18.1703V21.0883H53.775V22.9811H43.7943V31.7981H41.5887V18.1388C41.5887 15.8675 42.3028 14.0694 43.7467 12.776C45.1748 11.4826 47.2058 10.836 49.8081 10.836C52.4104 10.836 54.3621 11.388 55.9012 12.4763L55.092 14.2902C53.7432 13.2965 51.9978 12.8076 49.8874 12.8076C47.7771 12.8076 46.3014 13.265 45.3017 14.1956V14.1798Z" fill="#003557"/>
<path d="M60.4552 30.7571C59.6935 29.9685 59.3127 28.8643 59.3127 27.4606V9.7634H61.439V27.2871C61.439 28.2177 61.6611 28.9274 62.0895 29.4164C62.5338 29.9054 63.1844 30.142 64.0571 30.142C64.6125 30.142 65.0885 30.0473 65.4852 29.8738L65.628 31.6246C65.0092 31.8454 64.3745 31.9558 63.7239 31.9558C62.3117 31.9558 61.2168 31.5615 60.4552 30.7729V30.7571Z" fill="#003557"/>
<path d="M82.6855 16.183V29.9054C82.6855 32.5552 82.0826 34.5268 80.8608 35.8044C79.639 37.082 77.8142 37.7129 75.3706 37.7129C73.9902 37.7129 72.689 37.4921 71.4672 37.082C70.2454 36.6561 69.2458 36.0726 68.5 35.3155L69.579 33.7066C70.2613 34.3849 71.0864 34.9054 72.0861 35.2839C73.0857 35.6625 74.1488 35.8517 75.2754 35.8517C77.0843 35.8517 78.4172 35.3943 79.274 34.4637C80.1309 33.5489 80.5593 32.1136 80.5593 30.1735V28.3596C80.0039 29.2744 79.2423 29.9685 78.2744 30.4732C77.3065 30.9621 76.2116 31.2145 75.0057 31.2145C72.9588 31.2145 71.3403 30.6467 70.1502 29.511C68.9602 28.3754 68.3731 26.7035 68.3731 24.511V16.1987H70.4993V24.306C70.4993 25.9464 70.9119 27.1924 71.7211 28.0442C72.5303 28.8959 73.7045 29.3218 75.212 29.3218C76.8622 29.3218 78.1633 28.817 79.1312 27.8233C80.0833 26.8296 80.5593 25.4259 80.5593 23.6435V16.183H82.6855Z" fill="#003557"/>
<path d="M98.0611 29.5584C98.8863 29.2114 99.5844 28.7066 100.172 28.0284L101.362 29.4006C100.663 30.2366 99.7907 30.8675 98.7593 31.2934C97.7279 31.735 96.5855 31.9401 95.3161 31.9401C93.6976 31.9401 92.2695 31.5931 91.016 30.9148C89.7624 30.2366 88.7787 29.2902 88.0805 28.0757C87.3823 26.8612 87.0332 25.5047 87.0332 23.9748C87.0332 22.4448 87.3665 21.0883 88.0329 19.8738C88.6993 18.6593 89.6196 17.7287 90.7938 17.0505C91.968 16.3722 93.3009 16.041 94.7924 16.041C96.1888 16.041 97.4423 16.3565 98.5689 16.9874C99.6955 17.6183 100.584 18.5016 101.251 19.6372C101.917 20.7729 102.266 22.0505 102.314 23.5016L89.4134 25.9937C89.81 27.2555 90.54 28.2492 91.5713 28.9748C92.6186 29.7003 93.8721 30.0631 95.3161 30.0631C96.284 30.0631 97.1884 29.8896 98.0135 29.5426L98.0611 29.5584ZM91.8728 18.6278C91.0001 19.1325 90.3337 19.8423 89.8418 20.7413C89.3499 21.6404 89.1119 22.6814 89.1119 23.8486C89.1119 24.1483 89.1119 24.3691 89.1436 24.4953L100.235 22.3502C99.997 21.041 99.394 19.9685 98.4102 19.1325C97.4265 18.2965 96.2364 17.8707 94.8242 17.8707C93.7293 17.8707 92.7455 18.123 91.8887 18.6278H91.8728Z" fill="#003557"/>
<path d="M110.946 16.8612C111.929 16.3249 113.151 16.0568 114.611 16.0568V18.1073L114.103 18.0757C112.453 18.0757 111.152 18.5804 110.216 19.5899C109.279 20.5994 108.819 22.0189 108.819 23.8328V31.7981H106.693V16.183H108.724V19.2429C109.216 18.1861 109.962 17.3975 110.946 16.8612Z" fill="#003557"/>
<path d="M119.101 31.4038C117.943 31.041 117.023 30.5836 116.372 30.0158L117.324 28.3596C117.975 28.8801 118.8 29.2902 119.8 29.6214C120.799 29.9527 121.831 30.1104 122.91 30.1104C124.338 30.1104 125.401 29.8896 126.099 29.4479C126.781 29.0063 127.13 28.3754 127.13 27.5552C127.13 26.9874 126.94 26.53 126.559 26.1987C126.178 25.8675 125.702 25.6309 125.131 25.4574C124.56 25.2839 123.782 25.1262 122.83 24.9685C121.561 24.7319 120.53 24.4953 119.752 24.2429C118.975 23.9905 118.308 23.5804 117.769 22.9811C117.213 22.3817 116.943 21.5615 116.943 20.5205C116.943 19.2114 117.499 18.1388 118.594 17.3186C119.689 16.4826 121.212 16.0726 123.164 16.0726C124.179 16.0726 125.195 16.1987 126.21 16.4669C127.226 16.735 128.067 17.082 128.717 17.5237L127.797 19.2114C126.496 18.3281 124.957 17.8707 123.164 17.8707C121.815 17.8707 120.783 18.1073 120.101 18.5804C119.419 19.0536 119.07 19.6845 119.07 20.4574C119.07 21.0568 119.26 21.53 119.657 21.877C120.054 22.224 120.53 22.4921 121.101 22.6656C121.672 22.8391 122.481 23.0126 123.497 23.1861C124.75 23.4227 125.75 23.6593 126.512 23.8959C127.273 24.1325 127.908 24.5426 128.447 25.1104C128.987 25.6782 129.257 26.4826 129.257 27.4921C129.257 28.8644 128.685 29.9369 127.543 30.7413C126.401 31.5457 124.814 31.9401 122.783 31.9401C121.513 31.9401 120.292 31.7508 119.117 31.388L119.101 31.4038Z" fill="#003557"/>
<path d="M5.53776 58.612C3.8082 57.6972 2.45946 56.4196 1.47568 54.7792C0.491893 53.1388 0 51.2934 0 49.2429C0 47.1924 0.491893 45.3312 1.47568 43.7066C2.45946 42.082 3.8082 40.7886 5.53776 39.8738C7.26732 38.959 9.20315 38.4858 11.3453 38.4858C13.1542 38.4858 14.7885 38.8013 16.2642 39.4322C17.724 40.0631 18.9617 40.9779 19.9613 42.1609L16.8513 45.0158C15.4391 43.3912 13.6778 42.5867 11.5991 42.5867C10.298 42.5867 9.15555 42.8707 8.14003 43.4385C7.12451 44.0063 6.33113 44.795 5.7599 45.8044C5.18867 46.8139 4.90306 47.9653 4.90306 49.2429C4.90306 50.5205 5.18867 51.6719 5.7599 52.6814C6.33113 53.6909 7.12451 54.4795 8.14003 55.0473C9.15555 55.6151 10.3139 55.899 11.5991 55.899C13.6937 55.899 15.4391 55.0789 16.8513 53.4385L19.9613 56.2934C18.9617 57.5079 17.724 58.4227 16.2642 59.0536C14.7885 59.6845 13.1542 60 11.3294 60C9.20315 60 7.26732 59.5426 5.55363 58.612H5.53776Z" fill="#003557"/>
<path d="M25.4039 58.817C24.0551 58.1073 23.0079 57.1451 22.2462 55.899C21.4846 54.653 21.1038 53.2334 21.1038 51.6561C21.1038 50.0789 21.4846 48.6593 22.2462 47.4132C23.0079 46.1672 24.0551 45.1893 25.4039 44.4953C26.7526 43.7855 28.26 43.4385 29.9578 43.4385C31.6557 43.4385 33.1631 43.7855 34.4959 44.4953C35.8288 45.205 36.8761 46.1672 37.6377 47.4132C38.3994 48.6593 38.7802 50.0789 38.7802 51.6561C38.7802 53.2334 38.3994 54.653 37.6377 55.899C36.8761 57.1451 35.8288 58.123 34.4959 58.817C33.1631 59.5268 31.6398 59.8738 29.9578 59.8738C28.2759 59.8738 26.7526 59.5268 25.4039 58.817ZM32.9092 54.8738C33.6708 54.0694 34.0517 52.9968 34.0517 51.6561C34.0517 50.3155 33.6708 49.2429 32.9092 48.4385C32.1476 47.6341 31.1638 47.2397 29.9737 47.2397C28.7836 47.2397 27.7999 47.6341 27.0224 48.4385C26.2448 49.2429 25.864 50.3155 25.864 51.6561C25.864 52.9968 26.2448 54.0694 27.0224 54.8738C27.7999 55.6782 28.7836 56.0725 29.9737 56.0725C31.1638 56.0725 32.1476 55.6782 32.9092 54.8738Z" fill="#003557"/>
<path d="M56.4724 45.205C57.6942 46.388 58.3131 48.1546 58.3131 50.489V59.6372H53.648V51.1987C53.648 49.9369 53.3624 48.9905 52.807 48.3596C52.2517 47.7287 51.4424 47.429 50.3793 47.429C49.2051 47.429 48.2689 47.7918 47.5708 48.5174C46.8726 49.2429 46.5235 50.3155 46.5235 51.735V59.6372H41.8585V43.6593H46.3172V45.5363C46.9361 44.858 47.6977 44.3375 48.618 43.9748C49.5383 43.612 50.538 43.4227 51.6328 43.4227C53.6163 43.4227 55.2348 44.0221 56.4566 45.205H56.4724Z" fill="#003557"/>
<path d="M77.1161 45.205C78.3379 46.388 78.9567 48.1546 78.9567 50.489V59.6372H74.2916V51.1987C74.2916 49.9369 74.006 48.9905 73.4507 48.3596C72.8953 47.7287 72.0861 47.429 71.0229 47.429C69.8487 47.429 68.9126 47.7918 68.2144 48.5174C67.5162 49.2429 67.1671 50.3155 67.1671 51.735V59.6372H62.5021V43.6593H66.9609V45.5363C67.5797 44.858 68.3413 44.3375 69.2616 43.9748C70.182 43.612 71.1816 43.4227 72.2765 43.4227C74.2599 43.4227 75.8784 44.0221 77.1002 45.205H77.1161Z" fill="#003557"/>
<path d="M93.6659 55.7886C94.3164 55.5363 94.9194 55.1577 95.4748 54.6214L97.9501 57.2871C96.4427 59.0063 94.2212 59.8738 91.3175 59.8738C89.5086 59.8738 87.906 59.5268 86.5096 58.817C85.1133 58.1073 84.0343 57.1451 83.2885 55.899C82.5269 54.653 82.1461 53.2334 82.1461 51.6561C82.1461 50.0789 82.5269 48.6751 83.2726 47.429C84.0184 46.1672 85.0498 45.1893 86.3509 44.4953C87.6521 43.7855 89.1278 43.4385 90.7621 43.4385C92.3013 43.4385 93.6976 43.7539 94.9511 44.4006C96.2047 45.0473 97.2043 45.9779 97.9501 47.1924C98.6959 48.4069 99.0767 49.858 99.0767 51.5142L87.1919 53.8013C87.5251 54.5899 88.0646 55.1893 88.7945 55.5836C89.5244 55.9779 90.413 56.183 91.4762 56.183C92.3171 56.183 93.047 56.0568 93.6976 55.8044L93.6659 55.7886ZM87.8901 48.0599C87.1602 48.817 86.7635 49.858 86.7318 51.183L94.5544 49.6688C94.3323 48.8328 93.888 48.1703 93.2057 47.6814C92.5234 47.1924 91.7142 46.9401 90.7621 46.9401C89.5879 46.9401 88.6359 47.3186 87.8901 48.0757V48.0599Z" fill="#003557"/>
<path d="M105.36 58.817C103.996 58.1073 102.932 57.1451 102.171 55.899C101.409 54.653 101.028 53.2334 101.028 51.6561C101.028 50.0789 101.409 48.6593 102.171 47.4132C102.932 46.1672 103.996 45.1893 105.36 44.4953C106.725 43.7855 108.264 43.4385 109.978 43.4385C111.691 43.4385 113.151 43.7855 114.421 44.4953C115.69 45.205 116.61 46.1987 117.181 47.5079L113.564 49.4322C112.723 47.9653 111.517 47.2397 109.946 47.2397C108.724 47.2397 107.724 47.6341 106.931 48.4227C106.138 49.2114 105.741 50.2997 105.741 51.6561C105.741 53.0126 106.138 54.1009 106.931 54.8896C107.724 55.6782 108.74 56.0725 109.946 56.0725C111.533 56.0725 112.739 55.347 113.564 53.8801L117.181 55.836C116.61 57.0978 115.69 58.0915 114.421 58.8013C113.151 59.511 111.675 59.8738 109.978 59.8738C108.28 59.8738 106.725 59.5268 105.36 58.817Z" fill="#003557"/>
<path d="M129.415 58.8643C128.955 59.1956 128.4 59.4479 127.733 59.6214C127.067 59.7949 126.369 59.8738 125.655 59.8738C123.719 59.8738 122.243 59.3849 121.196 58.4227C120.165 57.4606 119.641 56.0252 119.641 54.1483V40.1262H124.306V44.0221H128.273V47.5867H124.306V54.0852C124.306 54.7634 124.481 55.2839 124.814 55.6467C125.147 56.0095 125.639 56.1987 126.274 56.1987C126.988 56.1987 127.622 55.9937 128.178 55.5994L129.399 58.8643H129.415Z" fill="#003557"/>
<path d="M132.049 59.0536C131.494 58.5016 131.208 57.8076 131.208 56.9716C131.208 56.1356 131.494 55.4259 132.049 54.9054C132.605 54.3849 133.287 54.1167 134.112 54.1167C134.937 54.1167 135.62 54.3849 136.175 54.9054C136.73 55.4259 137.016 56.1199 137.016 56.9716C137.016 57.8233 136.73 58.5016 136.175 59.0536C135.62 59.6057 134.937 59.8896 134.112 59.8896C133.287 59.8896 132.605 59.6057 132.049 59.0536Z" fill="#ED312A"/>
<path d="M9.86959 14.0536C9.86959 11.7035 11.7896 9.81073 14.1538 9.81073H22.2462V4.25868C22.2462 1.90852 20.3421 0.0157729 17.9779 0H4.30009C1.93584 0 0.0317354 1.89274 0.0158679 4.2429V17.8549C-0.0158671 20.205 1.9041 22.0978 4.25249 22.1136H9.85372V14.0694L9.86959 14.0536Z" fill="#FF5900"/>
<path d="M9.86959 14.0536C9.86959 11.7035 11.7896 9.81073 14.1538 9.81073H22.2462V4.25868C22.2462 1.90852 20.3421 0.0157729 17.9779 0H4.30009C1.93584 0 0.0317354 1.89274 0.0158679 4.2429V17.8549C-0.0158671 20.205 1.9041 22.0978 4.25249 22.1136H9.85372V14.0694L9.86959 14.0536Z" fill="#006FE6"/>
<path d="M13.1224 13.0442C12.8527 13.3123 12.694 13.6751 12.694 14.0536V22.0978H17.962C20.3263 22.0978 22.2462 20.205 22.2462 17.8549V12.6183H14.1379C13.7571 12.6183 13.3922 12.7445 13.1066 13.0126L13.1224 13.0442Z" fill="#009E4F"/>
<path d="M30.8623 11.0883C30.0848 10.3155 29.0217 9.84227 27.8475 9.84227H22.2462V12.6341H27.8316C28.2124 12.6341 28.5774 12.7918 28.8471 13.0599C29.1169 13.3281 29.2755 13.6909 29.2755 14.0852V27.6972C29.2438 28.0757 29.101 28.4385 28.8313 28.7066C28.5615 28.9748 28.1966 29.1325 27.7999 29.1325H14.1062C13.7254 29.1009 13.3604 28.959 13.0907 28.6908C12.8209 28.4227 12.6623 28.0599 12.6623 27.6656V22.0978H9.85372V27.6656C9.85372 28.8328 10.3139 29.9054 11.0914 30.6625C11.8689 31.4353 12.932 31.9085 14.1062 31.9085H27.7999C30.1641 31.9401 32.0682 30.0315 32.0841 27.6972V14.0852C32.1158 12.918 31.6398 11.8454 30.8623 11.0883Z" fill="#FF9E00"/>
<path d="M29.2755 0.0157738H27.308C25.7393 0.0157738 24.4677 1.27983 24.4677 2.83912V4.79495C24.4677 6.35424 25.7393 7.6183 27.308 7.6183H29.2755C30.8442 7.6183 32.1158 6.35424 32.1158 4.79495V2.83912C32.1158 1.27983 30.8442 0.0157738 29.2755 0.0157738Z" fill="#ED312A"/>
</g>
<defs>
<clipPath id="clip0_1_253">
<rect width="137" height="60" fill="white"/>
</clipPath>
</defs>
</svg>
