<svg width="137" height="60" viewBox="0 0 137 60" fill="none" xmlns="http://www.w3.org/2000/svg">
<g clip-path="url(#clip0_1_708)">
<path d="M45.3016 14.1798C44.302 15.0946 43.7942 16.4353 43.7942 18.1703V21.0883H53.7749V22.981H43.7942V31.7981H41.5886V18.1388C41.5886 15.8675 42.3027 14.0694 43.7466 12.776C45.1747 11.4826 47.2057 10.8359 49.808 10.8359C52.4103 10.8359 54.362 11.388 55.9011 12.4763L55.0919 14.2902C53.7431 13.2965 51.9977 12.8075 49.8873 12.8075C47.777 12.8075 46.3013 13.265 45.3016 14.1956V14.1798Z" fill="white"/>
<path d="M60.4552 30.7571C59.6936 29.9684 59.3127 28.8643 59.3127 27.4606V9.7634H61.439V27.2871C61.439 28.2177 61.6611 28.9274 62.0896 29.4164C62.5338 29.9053 63.1844 30.1419 64.0571 30.1419C64.6125 30.1419 65.0885 30.0473 65.4852 29.8738L65.628 31.6246C65.0092 31.8454 64.3745 31.9558 63.7239 31.9558C62.3117 31.9558 61.2168 31.5615 60.4552 30.7729V30.7571Z" fill="white"/>
<path d="M82.6855 16.183V29.9053C82.6855 32.5552 82.0826 34.5268 80.8608 35.8044C79.639 37.082 77.8142 37.7129 75.3706 37.7129C73.9901 37.7129 72.689 37.4921 71.4672 37.082C70.2454 36.6561 69.2458 36.0725 68.5 35.3154L69.579 33.7066C70.2613 34.3848 71.0864 34.9053 72.086 35.2839C73.0857 35.6624 74.1488 35.8517 75.2754 35.8517C77.0843 35.8517 78.4172 35.3943 79.274 34.4637C80.1309 33.5489 80.5593 32.1135 80.5593 30.1735V28.3596C80.0039 29.2744 79.2423 29.9684 78.2744 30.4732C77.3065 30.9621 76.2116 31.2145 75.0057 31.2145C72.9588 31.2145 71.3403 30.6467 70.1502 29.511C68.9601 28.3754 68.373 26.7035 68.373 24.511V16.1987H70.4993V24.306C70.4993 25.9464 70.9118 27.1924 71.7211 28.0442C72.5303 28.8959 73.7045 29.3218 75.2119 29.3218C76.8622 29.3218 78.1633 28.817 79.1312 27.8233C80.0833 26.8296 80.5593 25.4259 80.5593 23.6435V16.183H82.6855Z" fill="white"/>
<path d="M98.0611 29.5583C98.8862 29.2113 99.5844 28.7066 100.171 28.0284L101.362 29.4006C100.663 30.2366 99.7907 30.8675 98.7593 31.2934C97.7279 31.735 96.5854 31.94 95.316 31.94C93.6976 31.94 92.2695 31.593 91.0159 30.9148C89.7624 30.2366 88.7786 29.2902 88.0805 28.0757C87.3823 26.8612 87.0332 25.5047 87.0332 23.9747C87.0332 22.4448 87.3664 21.0883 88.0329 19.8738C88.6993 18.6593 89.6196 17.7287 90.7938 17.0504C91.968 16.3722 93.3009 16.041 94.7924 16.041C96.1888 16.041 97.4423 16.3564 98.5689 16.9874C99.6955 17.6183 100.584 18.5016 101.25 19.6372C101.917 20.7728 102.266 22.0504 102.314 23.5016L89.4133 25.9937C89.81 27.2555 90.5399 28.2492 91.5713 28.9747C92.6186 29.7003 93.8721 30.0631 95.316 30.0631C96.284 30.0631 97.1884 29.8896 98.0135 29.5426L98.0611 29.5583ZM91.8728 18.6277C91.0001 19.1325 90.3336 19.8422 89.8418 20.7413C89.3499 21.6404 89.1118 22.6814 89.1118 23.8486C89.1118 24.1482 89.1118 24.3691 89.1436 24.4952L100.235 22.3501C99.997 21.041 99.394 19.9684 98.4102 19.1325C97.4264 18.2965 96.2364 17.8706 94.8241 17.8706C93.7293 17.8706 92.7455 18.123 91.8887 18.6277H91.8728Z" fill="white"/>
<path d="M110.946 16.8612C111.929 16.3249 113.151 16.0568 114.611 16.0568V18.1072L114.103 18.0757C112.453 18.0757 111.152 18.5804 110.216 19.5899C109.28 20.5993 108.819 22.0189 108.819 23.8328V31.7981H106.693V16.1829H108.724V19.2429C109.216 18.1861 109.962 17.3975 110.946 16.8612Z" fill="white"/>
<path d="M119.102 31.4038C117.943 31.041 117.023 30.5836 116.372 30.0158L117.324 28.3596C117.975 28.8801 118.8 29.2902 119.8 29.6214C120.799 29.9527 121.831 30.1104 122.91 30.1104C124.338 30.1104 125.401 29.8896 126.099 29.4479C126.781 29.0063 127.13 28.3754 127.13 27.5552C127.13 26.9874 126.94 26.53 126.559 26.1987C126.178 25.8675 125.702 25.6309 125.131 25.4574C124.56 25.2839 123.782 25.1262 122.83 24.9684C121.561 24.7318 120.53 24.4953 119.752 24.2429C118.975 23.9905 118.308 23.5804 117.769 22.9811C117.213 22.3817 116.944 21.5615 116.944 20.5205C116.944 19.2113 117.499 18.1388 118.594 17.3186C119.689 16.4826 121.212 16.0725 123.164 16.0725C124.179 16.0725 125.195 16.1987 126.21 16.4669C127.226 16.735 128.067 17.082 128.717 17.5236L127.797 19.2113C126.496 18.3281 124.957 17.8706 123.164 17.8706C121.815 17.8706 120.783 18.1072 120.101 18.5804C119.419 19.0536 119.07 19.6845 119.07 20.4574C119.07 21.0568 119.26 21.53 119.657 21.877C120.054 22.224 120.53 22.4921 121.101 22.6656C121.672 22.8391 122.481 23.0126 123.497 23.1861C124.75 23.4227 125.75 23.6593 126.512 23.8959C127.273 24.1325 127.908 24.5426 128.447 25.1104C128.987 25.6782 129.257 26.4826 129.257 27.4921C129.257 28.8643 128.685 29.9369 127.543 30.7413C126.401 31.5457 124.814 31.94 122.783 31.94C121.513 31.94 120.292 31.7508 119.117 31.388L119.102 31.4038Z" fill="white"/>
<path d="M5.53776 58.612C3.8082 57.6971 2.45946 56.4195 1.47568 54.7792C0.491893 53.1388 0 51.2933 0 49.2429C0 47.1924 0.491893 45.3312 1.47568 43.7066C2.45946 42.082 3.8082 40.7886 5.53776 39.8738C7.26732 38.959 9.20315 38.4858 11.3453 38.4858C13.1542 38.4858 14.7885 38.8012 16.2642 39.4322C17.724 40.0631 18.9617 40.9779 19.9613 42.1609L16.8513 45.0157C15.4391 43.3911 13.6778 42.5867 11.5991 42.5867C10.298 42.5867 9.15555 42.8706 8.14003 43.4385C7.12451 44.0063 6.33113 44.7949 5.7599 45.8044C5.18867 46.8139 4.90306 47.9653 4.90306 49.2429C4.90306 50.5205 5.18867 51.6719 5.7599 52.6814C6.33113 53.6908 7.12451 54.4795 8.14003 55.0473C9.15555 55.6151 10.3139 55.899 11.5991 55.899C13.6937 55.899 15.4391 55.0788 16.8513 53.4385L19.9613 56.2933C18.9617 57.5079 17.724 58.4227 16.2642 59.0536C14.7885 59.6845 13.1542 60 11.3294 60C9.20315 60 7.26732 59.5426 5.55363 58.612H5.53776Z" fill="white"/>
<path d="M25.4039 58.817C24.0551 58.1072 23.0079 57.1451 22.2462 55.899C21.4846 54.653 21.1038 53.2334 21.1038 51.6561C21.1038 50.0789 21.4846 48.6593 22.2462 47.4132C23.0079 46.1672 24.0551 45.1893 25.4039 44.4953C26.7526 43.7855 28.26 43.4385 29.9578 43.4385C31.6556 43.4385 33.1631 43.7855 34.4959 44.4953C35.8288 45.205 36.8761 46.1672 37.6377 47.4132C38.3993 48.6593 38.7802 50.0789 38.7802 51.6561C38.7802 53.2334 38.3993 54.653 37.6377 55.899C36.8761 57.1451 35.8288 58.123 34.4959 58.817C33.1631 59.5268 31.6398 59.8738 29.9578 59.8738C28.2759 59.8738 26.7526 59.5268 25.4039 58.817ZM32.9092 54.8738C33.6708 54.0694 34.0516 52.9968 34.0516 51.6561C34.0516 50.3154 33.6708 49.2429 32.9092 48.4385C32.1475 47.6341 31.1638 47.2397 29.9737 47.2397C28.7836 47.2397 27.7998 47.6341 27.0223 48.4385C26.2448 49.2429 25.864 50.3154 25.864 51.6561C25.864 52.9968 26.2448 54.0694 27.0223 54.8738C27.7998 55.6782 28.7836 56.0725 29.9737 56.0725C31.1638 56.0725 32.1475 55.6782 32.9092 54.8738Z" fill="white"/>
<path d="M56.4724 45.205C57.6942 46.388 58.313 48.1546 58.313 50.4889V59.6372H53.648V51.1987C53.648 49.9369 53.3623 48.9905 52.807 48.3596C52.2516 47.7287 51.4424 47.429 50.3792 47.429C49.2051 47.429 48.2689 47.7918 47.5707 48.5173C46.8725 49.2429 46.5234 50.3154 46.5234 51.735V59.6372H41.8584V43.6593H46.3172V45.5363C46.936 44.858 47.6976 44.3375 48.618 43.9747C49.5383 43.612 50.5379 43.4227 51.6328 43.4227C53.6162 43.4227 55.2347 44.0221 56.4565 45.205H56.4724Z" fill="white"/>
<path d="M77.1162 45.205C78.338 46.388 78.9568 48.1546 78.9568 50.4889V59.6372H74.2918V51.1987C74.2918 49.9369 74.0061 48.9905 73.4508 48.3596C72.8954 47.7287 72.0862 47.429 71.023 47.429C69.8488 47.429 68.9127 47.7918 68.2145 48.5173C67.5163 49.2429 67.1672 50.3154 67.1672 51.735V59.6372H62.5022V43.6593H66.961V45.5363C67.5798 44.858 68.3414 44.3375 69.2618 43.9747C70.1821 43.612 71.1817 43.4227 72.2766 43.4227C74.26 43.4227 75.8785 44.0221 77.1003 45.205H77.1162Z" fill="white"/>
<path d="M93.6658 55.7886C94.3164 55.5363 94.9193 55.1577 95.4747 54.6214L97.95 57.2871C96.4426 59.0063 94.2212 59.8738 91.3174 59.8738C89.5085 59.8738 87.9059 59.5268 86.5096 58.817C85.1132 58.1072 84.0342 57.1451 83.2885 55.899C82.5268 54.653 82.146 53.2334 82.146 51.6561C82.146 50.0789 82.5268 48.6751 83.2726 47.429C84.0184 46.1672 85.0497 45.1893 86.3509 44.4953C87.652 43.7855 89.1277 43.4385 90.7621 43.4385C92.3012 43.4385 93.6975 43.7539 94.9511 44.4006C96.2046 45.0473 97.2043 45.9779 97.95 47.1924C98.6958 48.4069 99.0766 49.858 99.0766 51.5142L87.1919 53.8013C87.5251 54.5899 88.0646 55.1893 88.7945 55.5836C89.5244 55.9779 90.413 56.183 91.4761 56.183C92.3171 56.183 93.047 56.0568 93.6975 55.8044L93.6658 55.7886ZM87.89 48.0599C87.1601 48.817 86.7634 49.858 86.7317 51.183L94.5544 49.6688C94.3322 48.8328 93.8879 48.1703 93.2056 47.6814C92.5233 47.1924 91.7141 46.9401 90.7621 46.9401C89.5879 46.9401 88.6358 47.3186 87.89 48.0757V48.0599Z" fill="white"/>
<path d="M105.36 58.817C103.996 58.1072 102.932 57.1451 102.171 55.899C101.409 54.653 101.028 53.2334 101.028 51.6561C101.028 50.0789 101.409 48.6593 102.171 47.4132C102.932 46.1672 103.996 45.1893 105.36 44.4953C106.725 43.7855 108.264 43.4385 109.978 43.4385C111.691 43.4385 113.151 43.7855 114.42 44.4953C115.69 45.205 116.61 46.1987 117.181 47.5079L113.564 49.4322C112.723 47.9653 111.517 47.2397 109.946 47.2397C108.724 47.2397 107.724 47.6341 106.931 48.4227C106.138 49.2113 105.741 50.2997 105.741 51.6561C105.741 53.0126 106.138 54.1009 106.931 54.8896C107.724 55.6782 108.74 56.0725 109.946 56.0725C111.533 56.0725 112.739 55.347 113.564 53.8801L117.181 55.836C116.61 57.0978 115.69 58.0915 114.42 58.8012C113.151 59.511 111.675 59.8738 109.978 59.8738C108.28 59.8738 106.725 59.5268 105.36 58.817Z" fill="white"/>
<path d="M129.415 58.8643C128.955 59.1956 128.4 59.4479 127.733 59.6214C127.067 59.7949 126.369 59.8738 125.655 59.8738C123.719 59.8738 122.243 59.3848 121.196 58.4227C120.164 57.4605 119.641 56.0252 119.641 54.1482V40.1262H124.306V44.0221H128.273V47.5867H124.306V54.0851C124.306 54.7634 124.48 55.2839 124.814 55.6467C125.147 56.0094 125.639 56.1987 126.273 56.1987C126.988 56.1987 127.622 55.9937 128.178 55.5993L129.399 58.8643H129.415Z" fill="white"/>
<path d="M132.049 59.0536C131.494 58.5016 131.208 57.8075 131.208 56.9716C131.208 56.1356 131.494 55.4258 132.049 54.9053C132.605 54.3848 133.287 54.1167 134.112 54.1167C134.937 54.1167 135.62 54.3848 136.175 54.9053C136.73 55.4258 137.016 56.1198 137.016 56.9716C137.016 57.8233 136.73 58.5016 136.175 59.0536C135.62 59.6057 134.937 59.8896 134.112 59.8896C133.287 59.8896 132.605 59.6057 132.049 59.0536Z" fill="#ED312A"/>
<path d="M9.86949 14.0536C9.86949 11.7035 11.7895 9.81073 14.1537 9.81073H22.2461V4.25868C22.2461 1.90852 20.342 0.0157729 17.9778 0H4.29999C1.93574 0 0.0316362 1.89274 0.0157687 4.2429V17.8549C-0.0159663 20.205 1.904 22.0978 4.25239 22.1136H9.85362V14.0694L9.86949 14.0536Z" fill="#FF5900"/>
<path d="M9.86949 14.0536C9.86949 11.7035 11.7895 9.81073 14.1537 9.81073H22.2461V4.25868C22.2461 1.90852 20.342 0.0157729 17.9778 0H4.29999C1.93574 0 0.0316362 1.89274 0.0157687 4.2429V17.8549C-0.0159663 20.205 1.904 22.0978 4.25239 22.1136H9.85362V14.0694L9.86949 14.0536Z" fill="#006FE6"/>
<path d="M13.1223 13.0442C12.8525 13.3123 12.6938 13.6751 12.6938 14.0536V22.0978H17.9619C20.3261 22.0978 22.2461 20.205 22.2461 17.8549V12.6183H14.1378C13.757 12.6183 13.392 12.7445 13.1064 13.0126L13.1223 13.0442Z" fill="#009E4F"/>
<path d="M30.8621 11.0883C30.0846 10.3155 29.0215 9.84229 27.8473 9.84229H22.246V12.6341H27.8314C28.2122 12.6341 28.5772 12.7918 28.8469 13.06C29.1167 13.3281 29.2753 13.6909 29.2753 14.0852V27.6972C29.2436 28.0757 29.1008 28.4385 28.831 28.7066C28.5613 28.9748 28.1963 29.1325 27.7997 29.1325H14.106C13.7252 29.101 13.3602 28.959 13.0905 28.6909C12.8207 28.4227 12.6621 28.06 12.6621 27.6656V22.0978H9.85352V27.6656C9.85352 28.8328 10.3137 29.9054 11.0912 30.6625C11.8687 31.4353 12.9318 31.9085 14.106 31.9085H27.7997C30.1639 31.9401 32.068 30.0316 32.0839 27.6972V14.0852C32.1156 12.918 31.6396 11.8454 30.8621 11.0883Z" fill="#FF9E00"/>
<path d="M29.2754 0.0157776H27.3078C25.7392 0.0157776 24.4675 1.27983 24.4675 2.83912V4.79496C24.4675 6.35425 25.7392 7.6183 27.3078 7.6183H29.2754C30.844 7.6183 32.1157 6.35425 32.1157 4.79496V2.83912C32.1157 1.27983 30.844 0.0157776 29.2754 0.0157776Z" fill="#ED312A"/>
</g>
<defs>
<clipPath id="clip0_1_708">
<rect width="137" height="60" fill="white"/>
</clipPath>
</defs>
</svg>
